/* XPM */
static char * stlIcon_xpm[] = {
"32 32 85 1",
" 	c #000000",
".	c #0A0A0A",
"+	c #121212",
"@	c #040404",
"#	c #202020",
"$	c #B1B1B1",
"%	c #E1E1E1",
"&	c #D5D5D5",
"*	c #CDCDCD",
"=	c #E3E3E3",
"-	c #ACACAC",
";	c #323232",
">	c #1C1C1C",
",	c #878787",
"'	c #DEDEDE",
")	c #212121",
"!	c #C8C8C8",
"~	c #DBDBDB",
"{	c #A1A1A1",
"]	c #6F6F6F",
"^	c #282828",
"/	c #363636",
"(	c #BDBDBD",
"_	c #E2E2E2",
":	c #686868",
"<	c #565656",
"[	c #B5B5B5",
"}	c #D4D4D4",
"|	c #020202",
"1	c #131313",
"2	c #D9D9D9",
"3	c #BFBFBF",
"4	c #636363",
"5	c #2A2A2A",
"6	c #1B1B1B",
"7	c #5F5F5F",
"8	c #949494",
"9	c #8E8E8E",
"0	c #C7C7C7",
"a	c #CCCCCC",
"b	c #BABABA",
"c	c #797979",
"d	c #080808",
"e	c #EBEBEB",
"f	c #989898",
"g	c #8A8A8A",
"h	c #DFDFDF",
"i	c #7B7B7B",
"j	c #242424",
"k	c #C4C4C4",
"l	c #E4E4E4",
"m	c #222222",
"n	c #E0E0E0",
"o	c #848484",
"p	c #0E0E0E",
"q	c #CECECE",
"r	c #838383",
"s	c #E5E5E5",
"t	c #ADADAD",
"u	c #6E6E6E",
"v	c #ABABAB",
"w	c #303030",
"x	c #3C3C3C",
"y	c #393939",
"z	c #0D0D0D",
"A	c #E9E9E9",
"B	c #515151",
"C	c #6B6B6B",
"D	c #585858",
"E	c #A2A2A2",
"F	c #4D4D4D",
"G	c #D7D7D7",
"H	c #151515",
"I	c #A0A0A0",
"J	c #858585",
"K	c #9F9F9F",
"L	c #070707",
"M	c #D0D0D0",
"N	c #A3A3A3",
"O	c #727272",
"P	c #171717",
"Q	c #A8A8A8",
"R	c #D8D8D8",
"S	c #A7A7A7",
"T	c #5C5C5C",
"                                ",
"                                ",
"                                ",
"                                ",
"                                ",
"       .+@                      ",
"     #$%&%*  ======== ==        ",
"     -=; >,     ==    ==        ",
"     '=)        ==    ==        ",
"     !=~{]^     ==    ==        ",
"     /(===_:    ==    ==        ",
"       #<[=}    ==    ==        ",
"     |   1=2    ==    ==        ",
"     34567=8    ==    ==        ",
"     9$0abc.    ==    ======    ",
"                                ",
"                                ",
"                                ",
"                                ",
"                  d             ",
" eeeefg gf eehi jklkm eenoeeeee ",
" e   pqrqp e ;s t] uv e wn  e   ",
" e    xey  eehi lz z= eeAB  e   ",
" eeee CeD  e    %+ +h e|iE  e   ",
" e   >2FGH e    IJHoK e LM; e   ",
" eeeeNO cK e    PQRSH e  Tt e   ",
"                                ",
"                                ",
"                                ",
"                                ",
"                                ",
"                                "};
