/* XPM */
static char * out_SamAssetPublish_xpm[] = {
"20 20 2 1",
" 	c None",
".	c #FF0000",
"                    ",
"          ..        ",
"         ....       ",
"        ......      ",
"       ........     ",
"      ..........    ",
"      ..........    ",
"     ............   ",
"    ..............  ",
"   ................ ",
"  ................  ",
"   ...............  ",
"    .............   ",
"      ..........    ",
"       .........    ",
"        .......     ",
"         .....      ",
"           ...      ",
"            .       ",
"                    "};
