/* XPM */
static char * out_sam_model_alembic_xpm[] = {
"20 20 136 2",
"  	c None",
". 	c #010101",
"+ 	c #404040",
"@ 	c #8F8F8F",
"# 	c #B1B1B1",
"$ 	c #BBBBBB",
"% 	c #B4B4B4",
"& 	c #959595",
"* 	c #4D4D4D",
"= 	c #000000",
"- 	c #454545",
"; 	c #B9B9B9",
"> 	c #F0F0F0",
", 	c #FFFFFF",
"' 	c #F5F5F5",
") 	c #CBCBCB",
"! 	c #737373",
"~ 	c #5A5A5A",
"{ 	c #E2E2E2",
"] 	c #FEFEFE",
"^ 	c #F8F8F8",
"/ 	c #A8A8A8",
"( 	c #050505",
"_ 	c #3C3C3C",
": 	c #DFDFDF",
"< 	c #FCFCFC",
"[ 	c #161616",
"} 	c #A9A9A9",
"| 	c #F7F7F7",
"1 	c #CFCFCF",
"2 	c #7D7D7D",
"3 	c #515151",
"4 	c #D5D5D5",
"5 	c #F3F3F3",
"6 	c #5E5E5E",
"7 	c #3E3E3E",
"8 	c #D6D6D6",
"9 	c #AAAAAA",
"0 	c #BDBDBD",
"a 	c #FBFBFB",
"b 	c #757575",
"c 	c #313131",
"d 	c #C6C6C6",
"e 	c #E9E9E9",
"f 	c #1F1F1F",
"g 	c #8D8D8D",
"h 	c #888888",
"i 	c #FDFDFD",
"j 	c #F9F9F9",
"k 	c #646464",
"l 	c #9B9B9B",
"m 	c #080808",
"n 	c #BEBEBE",
"o 	c #EFEFEF",
"p 	c #AEAEAE",
"q 	c #6D6D6D",
"r 	c #525252",
"s 	c #DBDBDB",
"t 	c #808080",
"u 	c #474747",
"v 	c #3D3D3D",
"w 	c #ECECEC",
"x 	c #FAFAFA",
"y 	c #5B5B5B",
"z 	c #8A8A8A",
"A 	c #CACACA",
"B 	c #CDCDCD",
"C 	c #444444",
"D 	c #E7E7E7",
"E 	c #818181",
"F 	c #B6B6B6",
"G 	c #919191",
"H 	c #666666",
"I 	c #2E2E2E",
"J 	c #797979",
"K 	c #898989",
"L 	c #616161",
"M 	c #020202",
"N 	c #F2F2F2",
"O 	c #727272",
"P 	c #AFAFAF",
"Q 	c #6A6A6A",
"R 	c #BABABA",
"S 	c #E3E3E3",
"T 	c #7B7B7B",
"U 	c #BCBCBC",
"V 	c #B2B2B2",
"W 	c #424242",
"X 	c #565656",
"Y 	c #F6F6F6",
"Z 	c #191919",
"` 	c #030303",
" .	c #999999",
"..	c #A1A1A1",
"+.	c #EDEDED",
"@.	c #262626",
"#.	c #C5C5C5",
"$.	c #C4C4C4",
"%.	c #C0C0C0",
"&.	c #838383",
"*.	c #979797",
"=.	c #414141",
"-.	c #A2A2A2",
";.	c #C2C2C2",
">.	c #494949",
",.	c #C7C7C7",
"'.	c #2F2F2F",
").	c #E6E6E6",
"!.	c #C3C3C3",
"~.	c #0F0F0F",
"{.	c #585858",
"].	c #212121",
"^.	c #828282",
"/.	c #777777",
"(.	c #F1F1F1",
"_.	c #D0D0D0",
":.	c #E4E4E4",
"<.	c #D3D3D3",
"[.	c #A3A3A3",
"}.	c #949494",
"|.	c #0B0B0B",
"1.	c #9C9C9C",
"2.	c #D8D8D8",
"3.	c #CCCCCC",
"4.	c #F4F4F4",
"5.	c #BFBFBF",
"6.	c #C9C9C9",
"7.	c #303030",
"8.	c #9F9F9F",
"9.	c #1B1B1B",
"0.	c #070707",
"a.	c #6E6E6E",
"b.	c #C8C8C8",
"c.	c #B0B0B0",
"d.	c #848484",
"e.	c #292929",
"          . + @ # $ % & * . =           ",
"      . - ; > , , , , , ' ) ! .         ",
"    = ~ { ] , , , , , , , ] ^ / (       ",
"  = _ : , , , , , , , , , , , < ; [     ",
"  = } , , , , , , , , , , ^ | , ] / .   ",
"  = 1 , , , , , , , , , < 2 3 4 , 5 6 = ",
"  7 8 , , , , , , , , , , ) 9 0 a ] $ . ",
"b c d , , , , , , , , , , , , , , , e f ",
"g = h i , , , , , , , , i j , , , , i k ",
"l = m n ] , , , , ] o p q r h s , , , t ",
"/ . u v } w ] , x ) y z A B h C D , , E ",
"F G d H . I J K L M } N 0 ; w O P , ] Q ",
"R S J = . T U V W X Y F Z ` A  ..., +.@.",
"G ] 2 = t 5 #.$.%.&.] *.=.-.;.>.#.] ,.. ",
"'.).U = !.B . ~.} {.Y B ].. . ^.| x /.  ",
"= K (.K $._.. . '.. # < :.A <.| ] ; .   ",
"  . [.(.) j }.. = . |.1.2.5 , , 3.@.=   ",
"  = M 1.4.] j %.^.L H K 5.' ] 6.7.=     ",
"      = /.8 < , , i i , , ).8.9.        ",
"          0.a./ %.b.$.c.d.e.=           "};
