/* XPM */
static char * out_sam_animation_alembic_xpm[] = {
"20 20 111 2",
"  	c None",
". 	c #7C7F95",
"+ 	c #8285A1",
"@ 	c #7C7E99",
"# 	c #767892",
"$ 	c #343434",
"% 	c #7E819C",
"& 	c #7F829E",
"* 	c #7A7D98",
"= 	c #80839E",
"- 	c #7B7D98",
"; 	c #C82E12",
"> 	c #7D809B",
", 	c #D82F07",
"' 	c #8A697E",
") 	c #8184A0",
"! 	c #7F819D",
"~ 	c #CF2F0E",
"{ 	c #E53307",
"] 	c #DA3213",
"^ 	c #E43207",
"/ 	c #E73307",
"( 	c #7B7E98",
"_ 	c #797B95",
": 	c #DE3106",
"< 	c #893C42",
"[ 	c #7A7C97",
"} 	c #8A8C9E",
"| 	c #80839F",
"1 	c #E13207",
"2 	c #7D190D",
"3 	c #E33207",
"4 	c #73180A",
"5 	c #4F5163",
"6 	c #7C7F9A",
"7 	c #B5B6BE",
"8 	c #B7635D",
"9 	c #D3D3D3",
"0 	c #D6BDBC",
"a 	c #D7B5B4",
"b 	c #510C01",
"c 	c #000000",
"d 	c #564B56",
"e 	c #CD8475",
"f 	c #D98977",
"g 	c #8D7D90",
"h 	c #DB8975",
"i 	c #DF7F67",
"j 	c #CE8986",
"k 	c #CCB4B3",
"l 	c #D12D06",
"m 	c #0B0100",
"n 	c #B16C59",
"o 	c #E68E75",
"p 	c #E48D74",
"q 	c #CF867A",
"r 	c #9B9CA9",
"s 	c #7C7D98",
"t 	c #CB5D48",
"u 	c #C05945",
"v 	c #C88074",
"w 	c #A22103",
"x 	c #4B0A01",
"y 	c #651203",
"z 	c #C56C58",
"A 	c #B06250",
"B 	c #D07E68",
"C 	c #D58673",
"D 	c #BE2C12",
"E 	c #CE6C56",
"F 	c #F8997F",
"G 	c #FF9D82",
"H 	c #DE8C76",
"I 	c #9E5951",
"J 	c #CA2C05",
"K 	c #D52F06",
"L 	c #E23207",
"M 	c #E63307",
"N 	c #CD2E08",
"O 	c #A34C3B",
"P 	c #DD3411",
"Q 	c #D42E06",
"R 	c #E48C74",
"S 	c #FE9D82",
"T 	c #E58D75",
"U 	c #ED9279",
"V 	c #C03F29",
"W 	c #E03107",
"X 	c #BE3F3D",
"Y 	c #D06C56",
"Z 	c #FD9C81",
"` 	c #DA846D",
" .	c #D25044",
"..	c #DD3108",
"+.	c #CB5E49",
"@.	c #D8816B",
"#.	c #DA836C",
"$.	c #CB6E59",
"%.	c #B8341C",
"&.	c #C52A05",
"*.	c #D92F06",
"=.	c #D32E05",
"-.	c #CF2D05",
";.	c #C32A05",
">.	c #DB3006",
",.	c #DF320C",
"'.	c #DD3719",
").	c #DD320D",
"!.	c #D8381F",
"~.	c #DD3412",
"{.	c #D64433",
". + + + + + + + + + + + + + + + + + + + ",
"@ + + + + + # $ % + & $ $ * + + + + + + ",
"= + + + + - $ ; $ > $ , $ ' ) + + + + + ",
"! + + + ) $ ~ { ] $ ^ / / $ ( + + + + + ",
"_ + + + ) $ : / / / / / / < [ + + + + + ",
"} + + + | $ 1 2 3 2 2 / / 4 5 > % 6 + + ",
"7 + + + 2 8 2 9 2 0 a 2 3 b c d e f g + ",
"  6 + 2 h i 2 c j c k 2 l m c n o p q | ",
"  r s $ t u 2 c v c c 2 w x y z A B C % ",
"    $ D 3 E F G G H I J K L M / N O $ ) ",
"  2 P / Q R G G S T U V / / / / / W X $ ",
"  2 M / ^ Y Z G G G ` 2 1 / / / / / / W ",
"2  ./ / / ..+.@.#.$.%.&.: / / / / / / / ",
"/ M / / / / / : *.=.-.;.>./ / / / / / / ",
"/ / / / / / / / W 2 2 2 2 2 / / / / / / ",
"/ / / / / / / ,.2           2 './ / / / ",
"/ / / / / / ).2               2 2 !./ / ",
"/ L / / / M 2                     2 ~./ ",
"/ M / / / {.                        2 ^ ",
"  / / / / 2                           2 "};
